<?xml version="1.0" standalone="no"?>
<!DOCTYPE svg PUBLIC "-//W3C//DTD SVG 20010904//EN"
 "http://www.w3.org/TR/2001/REC-SVG-20010904/DTD/svg10.dtd">
<svg version="1.0" xmlns="http://www.w3.org/2000/svg"
 width="99.000000pt" height="99.000000pt" viewBox="0 0 99.000000 99.000000"
 preserveAspectRatio="xMidYMid meet">
<metadata>
Created by potrace 1.14, written by Peter Selinger 2001-2017
</metadata>
<g transform="translate(0.000000,99.000000) scale(0.100000,-0.100000)"
fill="#000000" stroke="none">
<path d="M0 740 l0 -240 36 0 35 0 -3 106 c-4 98 -3 105 14 101 10 -3 34 -1
52 4 68 19 97 145 50 217 -32 48 -40 52 -113 52 l-71 0 0 -240z m128 102 c3
-57 1 -63 -20 -71 -13 -5 -26 -7 -30 -4 -5 2 -8 36 -8 74 l0 70 28 -3 c26 -3
27 -6 30 -66z"/>
<path d="M270 963 c-14 -9 -28 -22 -32 -27 -4 -6 -8 -205 -8 -443 l0 -432 23
-27 c20 -23 31 -27 77 -27 47 0 57 4 77 29 l23 29 -1 427 0 427 -29 31 c-33
35 -89 41 -130 13z m76 -65 c4 -6 9 -193 11 -414 3 -396 3 -403 -17 -409 -11
-3 -24 -3 -30 0 -11 7 -15 817 -3 828 10 11 31 8 39 -5z"/>
<path d="M500 740 l0 -240 35 0 35 0 0 105 c0 84 3 105 14 105 15 0 19 -10 56
-137 l21 -73 39 0 c22 0 40 1 40 3 0 1 -17 49 -38 107 l-37 105 30 27 c28 25
30 31 29 95 -1 76 -22 128 -58 137 -12 3 -54 6 -93 6 l-73 0 0 -240z m148 98
l3 -68 -41 0 -40 0 0 71 0 70 38 -3 37 -3 3 -67z"/>
<path d="M760 945 c0 -33 2 -35 35 -35 l35 0 0 -170 c0 -144 -2 -170 -15 -170
-10 0 -15 -11 -15 -35 l0 -35 65 0 65 0 0 35 c0 28 -4 35 -20 35 -19 0 -20 7
-20 170 l0 170 45 0 c45 0 45 0 45 35 l0 35 -110 0 -110 0 0 -35z"/>
<path d="M834 450 c-48 -19 -54 -43 -54 -223 0 -93 4 -177 10 -187 21 -38 99
-46 148 -14 21 14 22 19 22 197 -1 190 -3 202 -47 225 -25 14 -49 14 -79 2z
m62 -62 c10 -16 5 -311 -5 -321 -5 -5 -17 -7 -27 -5 -17 3 -19 16 -22 158 -1
85 0 160 2 167 7 16 42 17 52 1z"/>
<path d="M0 230 l0 -220 30 0 30 0 0 95 0 95 45 0 c45 0 45 0 45 35 0 34 -1
35 -40 35 l-40 0 0 55 c0 42 3 55 15 55 9 0 15 -9 15 -25 0 -21 5 -25 30 -25
l30 0 0 60 0 60 -80 0 -80 0 0 -220z"/>
<path d="M490 230 l0 -220 70 0 70 0 0 30 c0 27 -3 30 -30 30 l-30 0 0 190 0
190 -40 0 -40 0 0 -220z"/>
<path d="M670 230 l0 -220 35 0 35 0 0 220 0 220 -35 0 -35 0 0 -220z"/>
</g>
</svg>
